<svg xmlns="http://www.w3.org/2000/svg" width="256" height="256" viewBox="0 0 100 100"><path fill="#224455" d="M5.83 23.01L46.92 23.01L46.92 29.02L30.81 29.02L30.81 76.99L21.95 76.99L21.95 29.02L5.83 29.02L5.83 23.01ZM83.18 48.57L83.18 48.57Q84.86 48.79 86.77 49.67Q88.67 50.55 90.32 52.16Q91.97 53.77 93.07 56.08Q94.17 58.39 94.17 61.39L94.17 61.39Q94.17 65.05 93.07 67.69Q91.97 70.32 90.32 72.05Q88.67 73.77 86.73 74.76Q84.79 75.74 83.00 76.26Q81.20 76.77 79.81 76.88Q78.42 76.99 77.98 76.99L77.98 76.99L69.48 76.99L69.48 70.54L77.47 70.54Q81.35 70.54 83.54 68.05Q85.74 65.56 85.74 61.39L85.74 61.39Q85.74 57.43 83.47 54.72Q81.20 52.01 76.81 52.01L76.81 52.01L69.48 52.01L69.48 46.08L73.00 46.08Q74.61 46.08 76.29 46.01Q77.98 45.94 79.44 45.20Q80.91 44.47 81.82 42.71Q82.74 40.95 82.74 37.66L82.74 37.66Q82.74 36.34 82.37 34.91Q82.01 33.48 80.91 32.31Q79.81 31.14 77.76 30.41Q75.71 29.68 72.34 29.68L72.34 29.68L69.48 29.68L69.48 23.01L73.22 23.01Q76.66 23.01 79.88 23.82Q83.11 24.62 85.60 26.38Q88.09 28.14 89.55 30.96Q91.02 33.78 91.02 37.66L91.02 37.66Q91.02 39.93 90.28 41.80Q89.55 43.66 88.45 45.06Q87.35 46.45 85.93 47.36Q84.50 48.28 83.18 48.57ZM57.69 76.99L57.69 23.01L66.48 23.01L66.48 76.99L57.69 76.99Z"></path></svg>